<svg width="32" height="27" viewBox="0 0 32 27" fill="none" xmlns="http://www.w3.org/2000/svg">
<g id="Communication / Chat_Circle_Dots">
<path id="Vector" d="M10.0137 22.277C11.7757 23.1344 13.82 23.6249 16.0002 23.6249C22.6276 23.6249 28 19.0919 28 13.5C28 7.90812 22.6274 3.375 16 3.375C9.37258 3.375 4 7.90812 4 13.5C4 15.3395 4.58139 17.0644 5.59759 18.5511L5.59844 18.5524C5.69827 18.6984 5.74831 18.7716 5.77088 18.8405C5.79194 18.9048 5.7989 18.9622 5.79351 19.0287C5.78778 19.0994 5.75886 19.1726 5.70172 19.3172L5.69958 19.3226L4.67448 21.9174L4.67368 21.9194C4.45708 22.4677 4.34872 22.742 4.42586 22.9245C4.49308 23.0835 4.6416 23.2087 4.83008 23.2654C5.04667 23.3306 5.3727 23.239 6.02409 23.0558L9.09938 22.1909L9.10147 22.1903C9.27573 22.1413 9.36282 22.1168 9.44723 22.1119C9.52611 22.1074 9.59437 22.1131 9.67057 22.1309C9.75245 22.15 9.8396 22.1923 10.0137 22.277Z" stroke="white" stroke-width="2" stroke-linecap="round" stroke-linejoin="round"/>
</g>
</svg>
